# xmcd
#
# Track frame offsets: 
#        150
#        20750
#        36975
#        56488
#        72700
#        92338
#        107488
#        123388
#        141900
#        164175
#        181188
#        200425
#        217000
#        244875
#
# Disc length: 3463 seconds
#
# Revision: 5
# Processed by: cddbd v1.5.2PL0 Copyright (c) Steve Scherf et al.
# Submitted via: ExactAudioCopy v0.99pb4
#
DISCID=d50d850e
DTITLE=James Cotton - Deep In The Blues
DYEAR=1996
DGENRE=Blues
TTITLE0=Down At Your Buryin'
TTITLE1=All Walks Of Life
TTITLE2=You Got My Nose Open
TTITLE3=Dealin' With The Devil
TTITLE4=Strange Things Happen
TTITLE5=Country Boy
TTITLE6=Vineyard Blues
TTITLE7=Worried Life Blues
TTITLE8=Two Trains Runnin'
TTITLE9=Ozark Mountain Railroad
TTITLE10=Sad Letter
TTITLE11=Play With Your Poodle
TTITLE12=Blues In My Sleep
TTITLE13=Everybody's Fishin'
EXTD=
EXTT0=
EXTT1=
EXTT2=
EXTT3=
EXTT4=
EXTT5=
EXTT6=
EXTT7=
EXTT8=
EXTT9=
EXTT10=
EXTT11=
EXTT12=
EXTT13=
PLAYORDER=
